<svg width="36" height="32" viewBox="0 0 36 32" fill="none" xmlns="http://www.w3.org/2000/svg" class="d5tNz4y9a6hex06oaJ6Q"><g clip-path="url(#clip0_992_14699)" fill="#666E6E"><path d="M2.603 26.096H1.041c-.276 0-.54-.112-.736-.31A1.066 1.066 0 010 25.04v-1.586c0-.28.11-.55.305-.748a1.033 1.033 0 011.473 0c.195.199.304.468.304.748v.529h.521c.276 0 .541.11.736.31a1.066 1.066 0 010 1.494c-.195.198-.46.31-.736.31zM1.041 20.683c-.276 0-.54-.111-.736-.31A1.065 1.065 0 010 19.627v-2.87c0-.28.11-.55.305-.748a1.033 1.033 0 011.473 0c.195.199.304.468.304.748v2.87c0 .28-.11.55-.304.747-.196.199-.46.31-.737.31zm0-6.702c-.276 0-.54-.112-.736-.31A1.066 1.066 0 010 12.924v-2.87c0-.28.11-.55.305-.748a1.033 1.033 0 011.473 0c.195.198.304.467.304.748v2.87c0 .28-.11.549-.304.747-.196.198-.46.31-.737.31zM1.041 7.284c-.276 0-.54-.112-.736-.31A1.065 1.065 0 010 6.227V4.64c0-.28.11-.55.305-.748.195-.198.46-.31.736-.31h1.562c.276 0 .541.112.736.31a1.065 1.065 0 010 1.495c-.195.199-.46.31-.736.31h-.52v.529c0 .28-.11.549-.305.747-.196.198-.46.31-.737.31zM15.8 5.698h-2.827c-.276 0-.54-.111-.736-.31a1.065 1.065 0 010-1.495c.196-.198.46-.31.736-.31H15.8c.277 0 .541.112.737.31a1.065 1.065 0 010 1.495c-.196.199-.46.31-.736.31zm-6.596 0H6.372c-.276 0-.54-.111-.736-.31a1.065 1.065 0 010-1.495c.195-.198.46-.31.736-.31h2.832c.276 0 .541.112.737.31a1.066 1.066 0 010 1.495c-.196.199-.46.31-.737.31zM13.848 19.584a3.1 3.1 0 01-2.209-.93 3.196 3.196 0 01-.914-2.242c0-.84.329-1.648.915-2.242a3.1 3.1 0 012.208-.93 3.1 3.1 0 012.209.93c.586.594.915 1.401.915 2.242s-.33 1.648-.915 2.243a3.1 3.1 0 01-2.209.929zm0-4.229c-.276 0-.54.111-.736.31a1.065 1.065 0 000 1.495 1.033 1.033 0 001.473 0 1.065 1.065 0 000-1.495 1.033 1.033 0 00-.737-.31z"></path><path d="M26.952 0a8.995 8.995 0 00-6.399 2.695 9.274 9.274 0 00-2.655 6.497v.301H6.862c-.277 0-.541.112-.737.31a1.065 1.065 0 00-.305.747v20.398c0 .28.11.55.305.748.196.198.46.31.737.31h20.09c.276 0 .54-.112.736-.31.195-.199.305-.468.305-.748V18.315a9.02 9.02 0 005.71-3.017 9.274 9.274 0 00-.356-12.6A8.995 8.995 0 0026.952 0zM25.91 29.891H7.903v-2.754l3.42-3.303 2.27 2.31a1.04 1.04 0 00.737.31 1.027 1.027 0 00.736-.31l5.623-5.71 5.206 5.287.015 4.17zm0-7.146l-4.487-4.551a1.04 1.04 0 00-.737-.31 1.028 1.028 0 00-.736.31l-5.618 5.708-2.254-2.294a1.033 1.033 0 00-1.458 0l-2.717 2.643V11.64h10.323a9.227 9.227 0 002.834 4.545 9.003 9.003 0 004.85 2.163v4.398zm4.368-13.02L28.02 7.433v5.925c0 .25-.098.489-.271.665a.92.92 0 01-1.313 0 .954.954 0 01-.275-.665V7.432l-2.259 2.294a.92.92 0 01-.656.278.91.91 0 01-.656-.278.936.936 0 01-.274-.666.95.95 0 01.274-.666l3.858-3.917a.904.904 0 011.286 0L31.59 8.4a.937.937 0 01.275.666.948.948 0 01-.576.871.91.91 0 01-1.01-.21z"></path></g><defs><clipPath id="clip0_992_14699"><path fill="#fff" d="M0 0h36v32H0z"></path></clipPath></defs></svg>